<svg width="748" height="301" viewBox="0 0 748 301" fill="none" xmlns="http://www.w3.org/2000/svg">
<path d="M340 301L676 301C715.746 300.97 747.957 278.525 748 250.83V105.893C747.957 78.1973 715.746 55.7523 676 55.7224L653.762 55.7224L667.84 6.66796C668.445 4.55847 667.254 2.39726 664.785 1.1098C662.316 -0.177672 659.004 -0.360041 656.273 0.641625L506.023 55.7224L340 55.7224C300.254 55.7523 268.043 78.1973 268 105.893L268 250.83C268.043 278.525 300.254 300.97 340 301ZM284 105.893C284.035 84.3515 309.086 66.8959 340 66.8714L508 66.8714C509.301 66.8714 510.578 66.6509 511.727 66.229L648.855 15.9361L636.16 60.1809C635.68 61.8222 636.281 63.5261 637.801 64.8218C639.32 66.1201 641.598 66.8714 644 66.8714L676 66.8714C706.914 66.8959 731.965 84.3515 732 105.893V250.83C731.965 272.371 706.914 289.827 676 289.851L340 289.851C309.086 289.827 284.035 272.371 284 250.83L284 105.893Z" fill="#F66F58"/>
<path d="M395.71 141.37H370.44V131.68C370.44 130.667 370.06 129.78 369.3 129.02C368.667 128.26 367.843 127.88 366.83 127.88H356.38C355.367 127.88 354.48 128.26 353.72 129.02C353.087 129.78 352.77 130.667 352.77 131.68V153.53C352.77 154.543 353.087 155.43 353.72 156.19C354.48 156.95 355.367 157.33 356.38 157.33H373.48C389.187 157.583 397.04 165.943 397.04 182.41V208.82C397.04 225.54 389.187 233.9 373.48 233.9H351.06C335.353 233.9 327.5 225.54 327.5 208.82V196.09H352.77V209.77C352.77 210.783 353.087 211.67 353.72 212.43C354.48 213.19 355.367 213.57 356.38 213.57H368.16C369.173 213.57 369.997 213.19 370.63 212.43C371.39 211.67 371.77 210.783 371.77 209.77V185.64C371.77 184.627 371.39 183.74 370.63 182.98C369.997 182.22 369.173 181.84 368.16 181.84H351.06C335.353 181.84 327.5 173.48 327.5 156.76V132.25C327.5 115.53 335.353 107.17 351.06 107.17H372.15C387.857 107.17 395.71 115.53 395.71 132.25V141.37ZM447.391 217.37H454.991V233.9H437.131C421.425 233.9 413.571 225.54 413.571 208.82V119.14H439.031V139.28H454.991V157.71H439.031V208.25C439.031 211.797 439.728 214.203 441.121 215.47C442.515 216.737 444.605 217.37 447.391 217.37ZM536.898 162.46V208.82C536.898 225.54 529.044 233.9 513.338 233.9H491.868C476.161 233.9 468.308 225.54 468.308 208.82V162.46C468.308 145.74 476.161 137.38 491.868 137.38H513.338C529.044 137.38 536.898 145.74 536.898 162.46ZM511.438 214.14V156.95C511.438 155.937 511.058 155.05 510.298 154.29C509.664 153.53 508.841 153.15 507.828 153.15H497.378C496.364 153.15 495.478 153.53 494.718 154.29C494.084 155.05 493.768 155.937 493.768 156.95V214.14C493.768 215.153 494.084 216.04 494.718 216.8C495.478 217.56 496.364 217.94 497.378 217.94H507.828C508.841 217.94 509.664 217.56 510.298 216.8C511.058 216.04 511.438 215.153 511.438 214.14ZM593.736 137.38H598.676V162.08H586.136C581.829 162.08 579.676 164.297 579.676 168.73V232H554.216V139.28H577.396V148.21C581.069 140.99 586.516 137.38 593.736 137.38ZM653.196 139.28H678.656V239.03C678.656 255.75 670.802 264.11 655.096 264.11H636.096C620.389 264.11 612.536 255.75 612.536 239.03V235.99H637.236V242.07C637.236 243.083 637.552 243.97 638.186 244.73C638.946 245.49 639.832 245.87 640.846 245.87H649.586C650.599 245.87 651.422 245.49 652.056 244.73C652.816 243.97 653.196 243.083 653.196 242.07V223.26C649.396 226.3 644.202 227.82 637.616 227.82H633.626C617.919 227.82 610.066 219.46 610.066 202.74V139.28H635.526V205.78C635.526 206.793 635.842 207.68 636.476 208.44C637.236 209.2 638.122 209.58 639.136 209.58H649.586C650.599 209.58 651.422 209.2 652.056 208.44C652.816 207.68 653.196 206.793 653.196 205.78V139.28Z" fill="#F66F58"/>
<path d="M58.33 109.07C74.0367 109.07 81.89 117.43 81.89 134.15V206.92C81.89 223.64 74.0367 232 58.33 232H9.5V109.07H58.33ZM55.29 209.96V130.92C55.29 129.907 54.91 129.02 54.15 128.26C53.5167 127.5 52.6933 127.12 51.68 127.12H36.1V213.76H51.68C52.6933 213.76 53.5167 213.38 54.15 212.62C54.91 211.86 55.29 210.973 55.29 209.96ZM145.797 137.38C161.503 137.38 169.357 145.74 169.357 162.46V192.48H126.227V211.86C126.227 212.873 126.543 213.76 127.177 214.52C127.937 215.28 128.823 215.66 129.837 215.66H140.287C141.3 215.66 142.123 215.28 142.757 214.52C143.517 213.76 143.897 212.873 143.897 211.86V201.6H169.357V208.82C169.357 225.54 161.503 233.9 145.797 233.9H124.327C108.62 233.9 100.767 225.54 100.767 208.82V162.46C100.767 145.74 108.62 137.38 124.327 137.38H145.797ZM126.227 175.76H143.897V158.66C143.897 157.647 143.517 156.76 142.757 156C142.123 155.24 141.3 154.86 140.287 154.86H129.837C128.823 154.86 127.937 155.24 127.177 156C126.543 156.76 126.227 157.647 126.227 158.66V175.76ZM226.085 139.28H250.785L230.455 232H196.825L176.495 139.28H201.195L213.735 211.29L226.085 139.28Z" fill="#F66F58"/>
</svg>
